<svg xmlns="http://www.w3.org/2000/svg" xmlns:xlink="http://www.w3.org/1999/xlink" viewBox="0 0 327.03 84.21"><defs><linearGradient id="739b3639-88c2-45b1-8425-69168b0c9b88" x1="-3624.83" y1="-6104.27" x2="-3663.83" y2="-6104.27" gradientTransform="matrix(1, 0, 0, -1, 3693.65, -6056.74)" gradientUnits="userSpaceOnUse"><stop offset="0" stop-color="#eb7f91"/><stop offset="1" stop-color="#3f284a"/></linearGradient><linearGradient id="e9f70383-fa33-425f-8911-4ece26b64740" x1="-3678.27" y1="-6101.17" x2="-3635.84" y2="-6101.17" xlink:href="#739b3639-88c2-45b1-8425-69168b0c9b88"/><linearGradient id="32c79ff3-2c68-491f-85db-8db1b5a814ff" x1="-3649.76" y1="-6078.06" x2="-3649.76" y2="-6112.03" xlink:href="#739b3639-88c2-45b1-8425-69168b0c9b88"/></defs><title>impossibleTriangle</title><g id="0f4132b2-ca34-440d-ad3e-b7f82c91c5b5" data-name="Layer 1"><circle cx="42.1" cy="42.1" r="42.1" style="fill:#fff"/><polygon points="38.56 67.53 57.81 33.95 33.49 33.95 29.82 27.54 68.82 27.54 45.65 67.53 38.56 67.53" style="fill:url(#739b3639-88c2-45b1-8425-69168b0c9b88)"/><polygon points="15.39 27.54 18.97 21.32 38.36 55.29 50.67 33.95 57.81 33.95 38.56 67.53 15.39 27.54" style="fill:url(#e9f70383-fa33-425f-8911-4ece26b64740)"/><polygon points="18.97 21.32 65.15 21.32 68.82 27.54 29.82 27.54 42.11 48.79 38.36 55.29 18.97 21.32" style="fill:url(#32c79ff3-2c68-491f-85db-8db1b5a814ff)"/><path d="M118.34,37.06h-3.6V9.75h3.6Z" style="fill:#fff"/><path d="M129.57,9.75,138.5,32l8.93-22.28h4.67V37.06h-3.6V26.42l.34-11.48-9,22.11h-2.76L128.17,15l.36,11.42V37.06h-3.6V9.75Z" style="fill:#fff"/><path d="M162.06,26.37V37.06h-3.6V9.75h10.07a10.12,10.12,0,0,1,7,2.29,7.76,7.76,0,0,1,2.54,6.06,7.65,7.65,0,0,1-2.48,6.12q-2.49,2.15-7.12,2.15Zm0-2.94h6.47A6.47,6.47,0,0,0,173,22.06a5,5,0,0,0,1.54-3.94A5.15,5.15,0,0,0,173,14.22a6.07,6.07,0,0,0-4.22-1.52h-6.68Z" style="fill:#fff"/><path d="M203.69,24.29a16.88,16.88,0,0,1-1.35,7,10.22,10.22,0,0,1-3.83,4.57,10.56,10.56,0,0,1-15.37-4.53,16.22,16.22,0,0,1-1.42-6.8v-2a16.69,16.69,0,0,1,1.37-7,10.12,10.12,0,0,1,9.6-6.23A10.59,10.59,0,0,1,198.49,11a10.21,10.21,0,0,1,3.85,4.59,17,17,0,0,1,1.35,7Zm-3.58-1.76q0-4.86-2-7.45a6.43,6.43,0,0,0-5.46-2.6,6.36,6.36,0,0,0-5.37,2.6,12,12,0,0,0-2,7.21v2a12.26,12.26,0,0,0,2,7.4,6.93,6.93,0,0,0,10.85.15q1.91-2.54,2-7.29Z" style="fill:#fff"/><path d="M217.14,24.89a16.92,16.92,0,0,1-6.74-3.27,6.25,6.25,0,0,1-2.11-4.79,6.6,6.6,0,0,1,2.58-5.34,10.25,10.25,0,0,1,6.71-2.11,11.2,11.2,0,0,1,5,1.09,8.26,8.26,0,0,1,3.41,3,7.68,7.68,0,0,1,1.21,4.18h-3.62a5,5,0,0,0-1.58-3.9,6.41,6.41,0,0,0-4.44-1.42,6.56,6.56,0,0,0-4.15,1.17,3.92,3.92,0,0,0-1.49,3.26,3.52,3.52,0,0,0,1.42,2.83,13.9,13.9,0,0,0,4.82,2.11,22.33,22.33,0,0,1,5.33,2.11,8.08,8.08,0,0,1,2.85,2.69,6.87,6.87,0,0,1,.93,3.62,6.38,6.38,0,0,1-2.59,5.32,11,11,0,0,1-6.92,2,12.84,12.84,0,0,1-5.25-1.08,8.84,8.84,0,0,1-3.76-3,7.2,7.2,0,0,1-1.32-4.26H211a4.7,4.7,0,0,0,1.83,3.91,7.7,7.7,0,0,0,4.89,1.43,7.07,7.07,0,0,0,4.37-1.16,3.78,3.78,0,0,0,1.52-3.17,3.71,3.71,0,0,0-1.41-3.1A16.23,16.23,0,0,0,217.14,24.89Z" style="fill:#fff"/><path d="M239.92,24.89a16.93,16.93,0,0,1-6.74-3.27,6.25,6.25,0,0,1-2.11-4.79,6.6,6.6,0,0,1,2.58-5.34,10.25,10.25,0,0,1,6.7-2.11,11.19,11.19,0,0,1,5,1.09,8.24,8.24,0,0,1,3.41,3A7.67,7.67,0,0,1,250,17.65h-3.62a5,5,0,0,0-1.58-3.9,6.41,6.41,0,0,0-4.44-1.42,6.56,6.56,0,0,0-4.15,1.17,3.92,3.92,0,0,0-1.49,3.26,3.52,3.52,0,0,0,1.42,2.83,13.89,13.89,0,0,0,4.82,2.11,22.33,22.33,0,0,1,5.33,2.11,8.07,8.07,0,0,1,2.85,2.69,6.86,6.86,0,0,1,.93,3.62,6.38,6.38,0,0,1-2.59,5.32,11,11,0,0,1-6.92,2,12.85,12.85,0,0,1-5.25-1.08,8.84,8.84,0,0,1-3.76-3,7.21,7.21,0,0,1-1.32-4.26h3.62a4.7,4.7,0,0,0,1.83,3.91,7.7,7.7,0,0,0,4.89,1.43,7.07,7.07,0,0,0,4.37-1.16,3.77,3.77,0,0,0,1.52-3.17,3.71,3.71,0,0,0-1.41-3.1A16.23,16.23,0,0,0,239.92,24.89Z" style="fill:#fff"/><path d="M258.53,37.06h-3.6V9.75h3.6Z" style="fill:#fff"/><path d="M265.11,37.06V9.75H274q4.44,0,6.69,1.84A6.62,6.62,0,0,1,283,17a5.55,5.55,0,0,1-1.09,3.38,7,7,0,0,1-3,2.28,6.33,6.33,0,0,1,3.5,2.35,6.75,6.75,0,0,1,1.28,4.13A7.3,7.3,0,0,1,281.31,35a9.85,9.85,0,0,1-6.73,2.1Zm3.6-15.66h5.44a5.7,5.7,0,0,0,3.78-1.18A4,4,0,0,0,279.34,17,3.91,3.91,0,0,0,278,13.72a6.45,6.45,0,0,0-4-1h-5.33Zm0,2.89v9.83h5.94a5.73,5.73,0,0,0,4-1.3,4.58,4.58,0,0,0,1.45-3.59q0-4.93-5.36-4.93Z" style="fill:#fff"/><path d="M292.64,34.11h12.94v2.94H289V9.75h3.62Z" style="fill:#fff"/><path d="M325.12,24.44H313.29v9.68H327v2.94H309.69V9.75h17.16V12.7H313.29v8.8h11.83Z" style="fill:#fff"/><path d="M117.8,49.3v5.48h4.61v1H117.8V70.21a5.75,5.75,0,0,0,.7,3.19,2.64,2.64,0,0,0,2.35,1,14.54,14.54,0,0,0,2-.17l.17,1a6.94,6.94,0,0,1-2.12.22,3.77,3.77,0,0,1-3.17-1.23,6.4,6.4,0,0,1-1-3.88V55.79H113v-1h3.75V49.3Z" style="fill:#eb7f91"/><path d="M136.63,55.53l-1.31-.11A6,6,0,0,0,131,57.09a8.37,8.37,0,0,0-2.29,4.69V75.07h-1V54.78h1V59a7.48,7.48,0,0,1,2.48-3.36,6.71,6.71,0,0,1,4.14-1.24,4,4,0,0,1,1.43.21Z" style="fill:#eb7f91"/><path d="M140.25,48.44a1,1,0,0,1,.3-.74,1,1,0,0,1,.73-.31,1.05,1.05,0,0,1,1,1,1,1,0,0,1-.31.73,1,1,0,0,1-.74.3,1,1,0,0,1-1-1Zm1.54,26.63h-1V54.78h1Z" style="fill:#eb7f91"/><path d="M161.55,75.07a14.13,14.13,0,0,1-.37-3.71,8.15,8.15,0,0,1-3.28,3,10.16,10.16,0,0,1-4.71,1.07,6.56,6.56,0,0,1-4.53-1.53,5.09,5.09,0,0,1-1.72-4,5.15,5.15,0,0,1,2.52-4.47,12.14,12.14,0,0,1,6.7-1.72h5v-3a5,5,0,0,0-1.6-4A6.74,6.74,0,0,0,155,55.42a7.39,7.39,0,0,0-4.63,1.43,4.3,4.3,0,0,0-1.86,3.53l-1,0a5.19,5.19,0,0,1,2.17-4.2A8.31,8.31,0,0,1,155,54.4,7.78,7.78,0,0,1,160.2,56a5.89,5.89,0,0,1,2,4.62v9.7a13,13,0,0,0,.53,4.54v.17Zm-8.36-.64a9.11,9.11,0,0,0,4.9-1.28,7.9,7.9,0,0,0,3.09-3.58V64.76h-4.69q-4.35,0-6.66,1.73A4.23,4.23,0,0,0,148,70a4,4,0,0,0,1.48,3.15A5.49,5.49,0,0,0,153.19,74.43Z" style="fill:#eb7f91"/><path d="M169.73,59.5a8.49,8.49,0,0,1,2.93-3.73,7.22,7.22,0,0,1,4.27-1.37,6,6,0,0,1,4.85,1.85q1.58,1.85,1.6,5.58V75.07h-1V61.8A7.48,7.48,0,0,0,181,57a5.14,5.14,0,0,0-4.16-1.56,6.32,6.32,0,0,0-4.55,1.86,9.47,9.47,0,0,0-2.6,4.81v13h-1V54.78h1Z" style="fill:#eb7f91"/><path d="M188.79,64.72q0-4.86,2-7.59a6.63,6.63,0,0,1,5.61-2.73,7.79,7.79,0,0,1,4,1,7.57,7.57,0,0,1,2.83,3V54.78h1V74.71A9,9,0,0,1,202.27,81a7.21,7.21,0,0,1-5.61,2.26,8,8,0,0,1-3.74-.88,8.29,8.29,0,0,1-2.9-2.54l.71-.68a8.92,8.92,0,0,0,2.59,2.29,6.6,6.6,0,0,0,3.3.8,6.29,6.29,0,0,0,4.88-1.9A7.84,7.84,0,0,0,203.3,75V71.86a7.09,7.09,0,0,1-2.84,2.65,8.71,8.71,0,0,1-4.06.93,6.54,6.54,0,0,1-5.57-2.79,12.76,12.76,0,0,1-2-7.67Zm1,.39a11.83,11.83,0,0,0,1.72,6.84,5.56,5.56,0,0,0,4.84,2.48,7.75,7.75,0,0,0,4.37-1.19,6.41,6.41,0,0,0,2.55-3.35V60.69q-1.65-5.27-6.88-5.27a5.62,5.62,0,0,0-4.87,2.46Q189.82,60.33,189.82,65.11Z" style="fill:#eb7f91"/><path d="M212.06,75.07h-1V46.26h1Z" style="fill:#eb7f91"/><path d="M226,75.44a8.16,8.16,0,0,1-4.51-1.32,9.07,9.07,0,0,1-3.22-3.63,11.21,11.21,0,0,1-1.16-5.12v-.84a11.75,11.75,0,0,1,1.13-5.16,8.91,8.91,0,0,1,3.09-3.66,7.59,7.59,0,0,1,4.3-1.31,7.09,7.09,0,0,1,5.55,2.42,9.19,9.19,0,0,1,2.16,6.36v1.07H218.13v1.1a10.19,10.19,0,0,0,1,4.58,8.2,8.2,0,0,0,2.87,3.3,7.1,7.1,0,0,0,4,1.2,8.08,8.08,0,0,0,3.48-.68,7.07,7.07,0,0,0,2.54-2.1l.71.51A7.65,7.65,0,0,1,226,75.44Zm-.37-20a6.62,6.62,0,0,0-5,2.2,9.38,9.38,0,0,0-2.42,5.62h14.14V63a8.58,8.58,0,0,0-.87-3.84,6.73,6.73,0,0,0-2.4-2.76A6.18,6.18,0,0,0,225.64,55.42Z" style="fill:#eb7f91"/></g></svg>